<?xml version="1.0" encoding="iso-8859-1"?>
<!-- Generator: Adobe Illustrator 19.0.0, SVG Export Plug-In . SVG Version: 6.00 Build 0)  -->
<svg version="1.1" id="Layer_1" xmlns="http://www.w3.org/2000/svg" xmlns:xlink="http://www.w3.org/1999/xlink" x="0px" y="0px"
	 viewBox="0 0 512.001 512.001" style="enable-background:new 0 0 512.001 512.001;" xml:space="preserve">
<g>
	<g>
		<path d="M256.003,53.154c-117.693,0-211.33,142.151-211.33,253.171c0,108.24,87.388,154.929,195.325,159.018v-72.927
			c-43.223-12.985-69.15-75.435-21.281-87.826c15.149-3.921,59.298-3.953,74.571,0c48.086,12.449,21.738,74.901-21.28,87.826v72.927
			c107.977-4.09,195.325-50.816,195.325-159.018C467.333,195.227,373.644,53.154,256.003,53.154z M210.861,276.143
			c-30.743,30.743-72.093,39.24-92.355,18.978c-20.263-20.263-11.767-61.612,18.978-92.355
			c30.743-30.743,72.093-39.24,92.355-18.978C250.101,204.05,241.604,245.4,210.861,276.143z M393.502,295.121
			c-20.263,20.263-61.612,11.767-92.356-18.978c-30.743-30.743-39.24-72.093-18.978-92.355
			c20.263-20.263,61.612-11.767,92.355,18.978C405.268,233.509,413.764,274.857,393.502,295.121z"/>
	</g>
</g>
<g>
	<g>
		<path d="M77.706,46.658c-78.544,0-107.626,104.181-39.589,144.708c20.278-46.931,52.017-91.601,92.598-123.744
			C116.804,54.634,98.16,46.658,77.706,46.658z"/>
	</g>
</g>
<g>
	<g>
		<path d="M434.301,46.659c-20.455,0-39.099,7.977-53.011,20.965c40.438,32.027,72.223,76.585,92.598,123.744
			C541.899,150.861,512.868,46.659,434.301,46.659z"/>
	</g>
</g>
<g>
	<g>
		<circle cx="179.022" cy="245.229" r="21.172"/>
	</g>
</g>
<g>
	<g>
		<circle cx="332.979" cy="245.229" r="21.172"/>
	</g>
</g>
<g>
</g>
<g>
</g>
<g>
</g>
<g>
</g>
<g>
</g>
<g>
</g>
<g>
</g>
<g>
</g>
<g>
</g>
<g>
</g>
<g>
</g>
<g>
</g>
<g>
</g>
<g>
</g>
<g>
</g>
</svg>
